<svg width="168" height="61" viewBox="0 0 168 61" fill="none" xmlns="http://www.w3.org/2000/svg">
<path d="M80.4261 23.9979L75.0614 22.1757C75.0614 22.1757 74.2617 24.1278 72.9121 25.5625L74.7848 25.3363C74.7848 25.3363 69.2263 33.5592 65.8495 32.2533C65.8495 32.2533 63.5995 31.5466 66.4622 25.9411L57.5157 25.6152C54.9868 31.0538 49.7016 36.9293 48.0272 36.4981C46.2386 36.0378 46.7347 32.978 46.7347 32.978C48.6029 18.2222 57.0823 17.418 57.0823 17.418L56.0833 15.6664C58.1015 12.9537 61.0134 16.9051 57.9928 24.5098C57.8909 24.7673 57.7778 25.0283 57.6613 25.2893L67.9226 23.3696C68.6786 22.1331 71.0765 18.4002 73.2056 17.1895C73.2056 17.1895 75.4276 15.7649 72.5224 19.789C72.5224 19.789 76.3931 18.7194 78.7372 18.6063C78.7372 18.6063 81.2863 15.8903 80.1461 12.8384C80.1461 12.8384 73.5741 10.9938 68.6696 15.4379C67.0804 16.8782 65.5964 18.4809 63.455 22.4143C64.1427 18.4394 63.6577 14.2988 60.1634 11.5829C55.2354 7.75366 48.9691 11.9446 38.5723 21.796L41.6164 23.0795L41.2211 24.5501L42.8193 25.9557L44.9607 25.8862C44.9607 25.8862 40.4292 33.9355 44.9114 39.0068C49.3947 44.0781 57.3455 36.301 59.7949 32.0786C60.0099 31.7079 60.244 31.2834 60.4848 30.8186C60.4142 32.988 61.0549 35.3176 63.8627 36.0758C72.4798 38.4032 78.7372 29.5284 79.4114 27.5292C79.4114 27.5292 80.5796 25.1056 80.4261 23.9979Z" fill="#1F2535"/>
<path d="M84.9262 31.1289C84.9262 31.1289 85.3597 24.9689 88.3579 13.5585C86.5401 13.8094 84.1624 13.5059 84.1624 13.5059C78.969 33.0687 78.6241 35.4856 78.6241 35.4856C78.6241 35.4856 81.9247 35.1418 85.3899 35.4856C85.3899 35.4856 85.2947 32.8032 86.1694 30.9082L84.924 31.13L84.9262 31.1289Z" fill="#1F2535"/>
<path d="M107.731 18.8236C107.731 18.8236 109.652 15.2979 109.763 12.3277C109.763 12.3277 101.107 12.5517 90.1868 13.5081C90.1868 13.5081 89.0411 15.4603 89.0209 17.8055C89.0209 17.8055 90.7222 17.4057 93.764 17.0921C93.3116 18.9076 92.9184 20.5472 92.5757 22.0279C91.4669 22.16 90.3638 22.3235 89.2998 22.5263C89.2998 22.5263 89.3681 24.8446 89.731 26.351C89.731 26.351 90.4388 26.1091 91.7279 25.8504C91.3639 27.5774 91.0918 29.0031 90.8902 30.1814C89.6705 30.2676 88.4676 30.421 87.3275 30.6663C87.3275 30.6663 86.8112 31.9644 86.7473 34.0856C86.7473 34.0856 88.1171 34.0128 90.3638 34.1573C90.2809 35.3479 90.3839 35.6211 90.3839 35.6211C90.3839 35.6211 93.9679 35.872 96.7857 36.5754C96.7857 36.5754 96.611 35.8787 96.5438 34.9402C99.1713 35.4363 102.135 36.2091 105.189 37.4075C105.189 37.4075 106.256 33.5447 106.811 31.326C106.811 31.326 100.874 30.4322 96.0566 30.1668C96.1821 28.9964 96.3904 27.3411 96.7219 25.2736C99.4166 25.1638 101.225 25.3251 105.062 26.1382C105.062 26.1382 105.349 23.6854 106.141 21.5922C106.141 21.5922 102.185 21.3839 97.3625 21.6292C97.647 20.1407 97.9853 18.5167 98.3851 16.7718C100.238 16.7035 102.327 16.6934 104.626 16.7875L103.368 18.2558C103.368 18.2558 105.481 18.0038 107.729 18.8214L107.731 18.8236Z" fill="#1F2535"/>
<path d="M125.559 16.2017C125.559 16.2017 125.082 16.9331 124.866 17.9545C124.866 17.9545 127.278 16.8379 129.886 16.6587C129.886 16.6587 131.419 11.5314 132.988 8.91172C132.988 8.91172 120.218 10.8706 111.088 12.0589C111.088 12.0589 110.632 15.4435 109.626 17.3217C109.626 17.3217 112.049 17.2187 115.73 16.9779C113.34 24.1357 109.885 38.4244 109.885 38.4244L117.112 41.1707C117.181 36.9438 120.834 20.5831 121.752 16.5366C122.979 16.4358 124.254 16.3249 125.558 16.2017H125.559Z" fill="#1F2535"/>
<path d="M157.388 0C157.388 0 151.09 3.24236 137.449 14.0536C137.449 14.0536 139.268 7.04919 142.316 4.8025C142.316 4.8025 139.448 2.24445 136.65 1.8659C136.65 1.8659 134.08 5.37145 133.64 7.33254L135.498 7.07047C135.498 7.07047 131.172 15.4468 131.188 18.6534C131.188 18.6534 132.652 18.9345 134.496 21.2976C134.496 21.2976 142.569 14.6595 145.801 12.9448C145.801 12.9448 122.971 40.1873 118.373 49.4966C118.373 49.4966 122.507 49.7766 128.656 54.6183C130.609 53.1982 132.988 49.3465 132.988 49.3465L131.146 49.4395C131.146 49.4395 143.154 26.519 151.143 15.2195C151.143 15.2195 156.769 6.98423 160.913 3.71275C160.913 3.71275 159.685 1.88605 157.387 0H157.388Z" fill="#1F2535"/>
<path d="M41.7407 40.7473C38.6395 35.2123 35.9134 29.3145 33.6119 23.7538C43.881 12.7611 50.7723 9.16036 50.7723 9.16036C46.8288 6.33576 46.2509 5.00297 46.2509 5.00297C41.0508 8.56565 35.9157 12.9403 31.1367 17.4964C26.37 5.9796 24.5826 0 24.5826 0C21.1117 0.171358 18.4887 2.08877 18.4887 2.08877C18.9434 5.27177 20.0309 7.21942 20.0309 7.21942C20.433 6.53175 20.8104 6.18008 20.8104 6.18008C22.4456 12.116 24.8424 18.1818 26.3029 22.2799C14.3974 34.4821 7.2687 44.8756 7.2687 44.8756L9.22084 44.5709L8.58917 46.0157C8.58917 46.0157 10.0507 46.261 14.6416 49.4149C20.218 40.4897 23.9901 34.8864 28.7926 29.1891C34.0643 43.6738 38.355 54.5646 38.355 54.5646C44.7546 49.8326 48.3576 48.9545 48.3576 48.9545C45.2093 44.7792 42.9301 38.6876 42.9301 38.6876L41.7396 40.7451L41.7407 40.7473Z" fill="#1F2535"/>
<path d="M53.1859 12.0298C54.7012 12.0298 56.0597 12.5114 57.3399 13.5025C60.5475 15.9855 61.7213 19.8495 60.8275 24.988L60.6181 26.192L61.2049 25.119C63.6096 20.7208 65.2268 19.0767 66.8082 17.6487C69.7023 15.0369 73.1529 14.4881 75.5374 14.4881C77.2734 14.4881 78.5826 14.776 78.9433 14.8644C79.94 17.7081 77.8423 20.2986 77.4772 20.7175C75.4635 20.8306 72.5403 21.5396 71.3352 21.8509C72.6915 19.9189 72.7509 19.3836 72.6187 19.1237C72.5795 19.0476 72.4821 18.921 72.257 18.921C71.9557 18.921 71.5446 19.1719 71.4797 19.2133C69.2229 20.4946 65.5034 24.7192 64.5694 26.1752L60.5498 26.836L55.0954 27.8518C55.1727 27.6726 55.2399 27.5102 55.3026 27.3556C57.2996 22.3459 56.884 18.9098 55.9209 17.4897C55.5401 16.9275 55.0383 16.6183 54.5086 16.6183C53.9362 16.6183 53.374 16.9655 52.8846 17.6218L52.8051 17.7282L53.8063 19.4765C53.0907 19.6132 51.2102 20.1205 49.1528 21.9013C46.8019 23.9374 43.778 28.1027 42.7263 36.3794C42.7028 36.5216 42.1831 39.8681 44.2741 40.4046C44.3525 40.4247 44.4376 40.4348 44.5272 40.4348C46.7112 40.4348 52.1095 34.1999 54.7225 28.6783L63.9579 29.0132C62.2924 32.3608 62.3574 34.0767 62.7158 34.9301C62.998 35.6032 63.474 35.7936 63.5491 35.8205C63.8324 35.9291 64.1393 35.984 64.4607 35.984C68.1914 35.984 73.247 28.5988 73.4598 28.2841L73.7096 27.9167L73.2683 27.9694L71.7798 28.1486C72.8494 26.9244 73.7163 25.5469 73.984 25.1078L79.2109 26.8763C79.2714 28.0478 78.1313 30.421 78.119 30.4457L78.1134 30.4569L78.1089 30.4692C77.7807 31.4391 76.2295 33.8415 73.9425 35.9168C71.9086 37.7637 68.6293 39.9644 64.5649 39.9644C63.5536 39.9644 62.5299 39.8267 61.5197 39.5556C59.0949 38.9038 57.9155 37.0637 58.013 34.089L58.0421 33.2008L57.6311 33.9882C57.3824 34.4642 57.1327 34.9189 56.8885 35.3389C56.0093 36.8486 54.2073 39.1894 51.7892 41.2289C50.0197 42.7207 47.372 44.4992 44.8061 44.4992C43.3625 44.4992 42.1159 43.9202 41.1023 42.7778C38.654 40.0193 38.7996 36.3939 39.3529 33.8392C39.9577 31.046 41.1673 28.8833 41.1796 28.862L41.3566 28.5484L40.9971 28.5596L38.7593 28.6324L37.1846 27.2526L37.58 25.7888L37.6259 25.6174L37.4624 25.5491L34.4541 24.2858C39.0438 19.9649 42.3545 17.175 45.1656 15.2576C48.3565 13.0825 50.9784 12.0253 53.1836 12.0253M53.1836 11.8226C48.4909 11.8226 42.555 16.3596 34.0879 24.3518L37.3829 25.7361L36.955 27.322L38.6843 28.8385L41.0027 28.7635C41.0027 28.7635 36.0971 37.4433 40.95 42.9133C42.0734 44.18 43.3994 44.7031 44.805 44.7031C49.4709 44.7031 55.0249 38.9408 57.0621 35.4419C57.2951 35.0421 57.5482 34.5851 57.8091 34.0834C57.733 36.4219 58.4263 38.9352 61.4659 39.7528C62.5332 40.0395 63.5681 40.1694 64.5638 40.1694C72.267 40.1694 77.653 32.446 78.2993 30.5364C78.2993 30.5364 79.5637 27.9235 79.398 26.7284L73.8921 24.8659C73.8921 24.8659 72.724 26.8684 71.2635 28.4163L73.2907 28.1721C73.2907 28.1721 68.1253 35.7835 64.4585 35.7835C64.1673 35.7835 63.8862 35.7354 63.6174 35.6323C63.6174 35.6323 61.1814 34.8696 64.2804 28.8251L54.5948 28.4745C51.9516 34.136 46.5298 40.2355 44.525 40.2355C44.4522 40.2355 44.385 40.2276 44.3223 40.2119C42.3858 39.7158 42.9234 36.4163 42.9234 36.4163C44.945 20.5036 54.1255 19.6356 54.1255 19.6356L53.0436 17.7473C53.5106 17.1223 54.0225 16.8244 54.5063 16.8244C56.2837 16.8244 57.6826 20.8362 55.1111 27.284C55.0002 27.5617 54.8781 27.8428 54.7527 28.1251L60.5834 27.0387L64.6892 26.3633C65.5068 25.0294 69.2767 20.6962 71.5816 19.3903C71.5816 19.3903 71.9949 19.126 72.2547 19.126C72.6221 19.126 72.6837 19.6524 70.8413 22.1936C70.8413 22.1936 75.0312 21.04 77.569 20.918C77.569 20.918 80.3287 17.9881 79.0933 14.6976C79.0933 14.6976 77.6284 14.2876 75.534 14.2876C73.0096 14.2876 69.5701 14.8812 66.6693 17.4998C64.9491 19.0532 63.343 20.7813 61.0246 25.0227C61.7694 20.7365 61.2441 16.27 57.4608 13.3424C56.1392 12.3198 54.7281 11.827 53.1825 11.827L53.1836 11.8226Z" fill="#1F2535"/>
<path d="M87.3555 15.7604C84.215 27.7622 84.0706 34.3522 84.0706 34.4183L84.0661 34.6635L84.308 34.621L85.1357 34.4743C85.2029 36.3368 85.4873 38.2173 85.5982 38.8937C84.5454 38.7996 83.3359 38.7526 81.9986 38.7526C80.1047 38.7526 78.4393 38.8489 77.7606 38.8948C78.1604 37.8264 79.6399 33.3968 84.2072 16.2611C84.5992 16.1916 85.8569 15.9732 87.3566 15.7615M87.6299 15.5185C85.6621 15.7895 84.0448 16.0841 84.0448 16.0841C78.4225 37.1813 77.4514 39.12 77.4514 39.12C77.4514 39.12 79.5122 38.9553 81.9986 38.9553C83.2418 38.9553 84.5902 38.9968 85.8413 39.12C85.8413 39.12 85.3933 36.6347 85.3305 34.2346L84.2733 34.4216C84.2733 34.4216 84.383 27.8227 87.6287 15.5185H87.6299Z" fill="#1F2535"/>
<path d="M110.947 14.3548C110.772 17.0686 109.233 20.1866 108.863 20.9023C107.413 20.4061 106.033 20.2997 105.117 20.2997C104.963 20.2997 104.826 20.3031 104.707 20.3076L106.027 18.7732L105.609 18.7564C104.398 18.7071 103.178 18.6825 101.98 18.6825C100.93 18.6825 99.8713 18.7015 98.8364 18.7396L98.6819 18.7452L98.6472 18.8964C98.2406 20.6637 97.8677 22.4288 97.5384 24.1413L97.4891 24.3944L97.7467 24.381C99.43 24.2958 101.192 24.2522 102.982 24.2522C104.919 24.2522 106.374 24.3037 106.954 24.3283C106.306 26.1416 105.991 28.1441 105.9 28.7982C102.596 28.1083 100.719 27.8731 98.5419 27.8731C98.0793 27.8731 97.5865 27.8843 97.0344 27.9067L96.8686 27.9134L96.8429 28.0769C96.4643 30.4289 96.2414 32.2511 96.1216 33.3644L96.0992 33.576L96.312 33.5872C100.917 33.8404 106.539 34.6333 107.713 34.8035C107.189 36.8699 106.309 40.0697 106.073 40.9243C103.179 39.8088 100.09 38.9374 96.8866 38.3337L96.629 38.2856L96.648 38.5476C96.6928 39.1782 96.7824 39.7068 96.8451 40.0238C94.2154 39.4078 91.0783 39.1345 90.3503 39.0763C90.3279 38.8982 90.3055 38.4995 90.3604 37.7021L90.375 37.4993L90.1722 37.4859C88.9134 37.4053 87.9132 37.3885 87.2961 37.3885C86.9164 37.3885 86.6331 37.3941 86.455 37.3997C86.5345 35.6368 86.9064 34.4384 87.0251 34.0968C88.1495 33.8627 89.3994 33.6959 90.7445 33.6018L90.9025 33.5906L90.9293 33.4338C91.1657 32.0596 91.4703 30.4905 91.8354 28.7702L91.8993 28.47L91.598 28.5305C90.6124 28.7265 89.9426 28.9135 89.6234 29.0099C89.3367 27.6804 89.2415 25.8717 89.2169 25.3105C90.2484 25.119 91.3785 24.9499 92.5791 24.8077L92.7202 24.7909L92.7527 24.652C93.1368 23 93.5692 21.2092 94.0384 19.3321L94.1079 19.0521L93.8212 19.0812C91.2418 19.3466 89.5316 19.6725 88.9156 19.8002C89.0007 17.754 89.8732 16.0169 90.0927 15.6104C100.737 14.6841 109.473 14.3974 110.947 14.3537M111.16 14.1454C111.16 14.1454 101.788 14.3862 89.9673 15.4177C89.9673 15.4177 88.7275 17.5233 88.7051 20.0522C88.7051 20.0522 90.5474 19.621 93.8402 19.2828C93.3508 21.2405 92.924 23.009 92.5533 24.6061C91.3527 24.7483 90.1588 24.9241 89.0063 25.1437C89.0063 25.1437 89.0803 27.6446 89.4722 29.2686C89.4722 29.2686 90.2383 29.0076 91.6349 28.7287C91.2407 30.5902 90.9473 32.1279 90.7278 33.4002C89.4084 33.4932 88.1059 33.6589 86.8705 33.9232C86.8705 33.9232 86.3117 35.3232 86.2422 37.6113C86.2422 37.6113 86.6152 37.5912 87.2939 37.5912C87.9726 37.5912 88.9447 37.6102 90.1566 37.6875C90.067 38.9721 90.179 39.2667 90.179 39.2667C90.179 39.2667 94.0597 39.5366 97.1094 40.2959C97.1094 40.2959 96.9201 39.5444 96.8473 38.5331C99.6921 39.0684 102.901 39.9017 106.207 41.1942C106.207 41.1942 107.363 37.0278 107.963 34.6367C107.963 34.6367 101.536 33.6724 96.321 33.3856C96.4576 32.1234 96.6827 30.3382 97.0411 28.1083C97.5653 28.087 98.0592 28.0747 98.5408 28.0747C100.735 28.0747 102.663 28.3211 106.072 29.0401C106.072 29.0401 106.383 26.3947 107.24 24.1379C107.24 24.1379 105.542 24.0483 102.982 24.0483C101.475 24.0483 99.6708 24.0797 97.7366 24.1771C98.0446 22.5722 98.4108 20.8205 98.8443 18.9389C99.8288 18.9031 100.876 18.8818 101.98 18.8818C103.085 18.8818 104.333 18.9042 105.601 18.9557L104.239 20.5394C104.239 20.5394 104.572 20.5002 105.117 20.5002C106.004 20.5002 107.454 20.6044 108.96 21.1498C108.96 21.1498 111.04 17.3486 111.16 14.1443V14.1454Z" fill="#1F2535"/>
<path d="M135.916 10.7283C134.4 13.3513 132.539 17.5793 132.215 18.3207C130.177 18.4876 128.583 19.3052 127.842 19.7565C128.085 18.9737 128.428 18.4428 128.432 18.4361L128.662 18.0844L128.244 18.1236C126.904 18.249 125.519 18.37 124.127 18.4842L123.979 18.4966L123.947 18.641C122.809 23.6384 119.142 40.0563 118.927 44.9629L111.536 42.1652C111.957 40.4415 115.409 26.4104 117.817 19.2279L117.913 18.9423L117.612 18.9613C114.496 19.1641 112.192 19.2772 111.355 19.3164C112.229 17.4785 112.677 14.7256 112.779 14.0401C121.577 12.8966 133.537 11.0912 135.919 10.7295M136.31 10.4651C136.31 10.4651 122.486 12.5774 112.601 13.8587C112.601 13.8587 112.108 17.5087 111.019 19.5337C111.019 19.5337 113.642 19.4217 117.626 19.1629C115.039 26.8819 111.299 42.2906 111.299 42.2906L119.123 45.2519C119.197 40.6935 123.152 23.0493 124.146 18.6858C125.473 18.5772 126.854 18.4574 128.266 18.3252C128.266 18.3252 127.75 19.1137 127.516 20.2157C127.516 20.2157 129.533 18.706 132.355 18.5134C132.355 18.5134 134.61 13.2886 136.31 10.464V10.4651Z" fill="#1F2535"/>
<path d="M163.202 0.978867C165.048 2.40685 166.982 4.25258 167.629 4.88201C162.917 6.80615 156.088 16.7203 155.794 17.1481C147.238 29.2047 134.262 53.8276 134.132 54.074L133.966 54.3887L135.934 54.289C135.257 55.3833 132.987 58.9381 131.256 60.2798C125.527 55.8089 121.74 54.4122 120.775 54.1042C125.924 44.0009 150.087 15.2318 150.332 14.9406L151.001 14.1465L150.084 14.6315C146.869 16.3305 139.211 22.1499 138.011 23.0661C136.388 21.0322 135.209 20.2896 134.837 20.0881C134.921 16.6486 139.159 8.653 139.203 8.57125L139.39 8.22069L138.996 8.27557L137.286 8.51637C137.852 6.62471 139.949 3.65675 140.363 3.0822C142.841 3.46747 145.382 5.44425 146.082 6.02328C142.879 8.5802 140.709 15.1713 140.616 15.4558L140.41 16.0908L140.934 15.6764C154.581 4.90217 162.229 1.40334 163.203 0.977747M163.232 0.74479C163.232 0.74479 155.577 3.85723 140.809 15.5174C140.809 15.5174 143.105 8.45253 146.404 6.03C146.404 6.03 143.3 3.27148 140.271 2.86268C140.271 2.86268 137.488 6.64375 137.012 8.75828L139.025 8.47605C139.025 8.47605 134.615 16.7539 134.635 20.2113C134.635 20.2113 135.981 20.7992 137.977 23.3472C137.977 23.3472 146.679 16.6598 150.179 14.8096C150.179 14.8096 125.463 44.1879 120.487 54.2286C120.487 54.2286 124.598 55.3138 131.254 60.5341C133.369 59.0031 136.308 54.0673 136.308 54.0673L134.313 54.1681C134.313 54.1681 147.314 29.45 155.962 17.2646C155.962 17.2646 163.294 6.55863 168 4.95929C168 4.95929 165.547 2.51885 163.233 0.74479H163.232Z" fill="#1F2535"/>
<path d="M18.6634 0.626072C19.0005 1.71134 21.1632 8.50965 25.8537 19.798L25.9669 20.0701L26.1808 19.8674C31.8277 14.5038 37.2619 10.0205 42.3377 6.53735C42.6546 7.03015 43.7197 8.39317 46.9218 10.7082C45.4501 11.5493 38.392 15.8612 28.5742 26.3297L28.4846 26.4249L28.535 26.5459C31.3652 33.3588 34.3298 39.5321 37.3459 44.8935L37.5195 45.2015L38.7761 43.0399C39.3585 44.5037 41.5402 49.7441 44.3772 53.5711C43.4554 54.0225 39.7595 55.9343 33.94 60.2014C33.2557 58.3434 28.899 46.4995 23.6955 32.2623L23.5757 31.9353L23.3506 32.2007C18.0519 38.4614 13.9001 44.656 8.12549 53.8578C4.29962 51.2539 2.51661 50.5348 1.91293 50.3433L2.50205 49.0005L2.66668 48.6241L0.479354 49.164C2.06973 46.9341 9.63411 36.5798 20.9538 25.0216L21.0423 24.9309L20.9997 24.811C20.638 23.8008 20.2202 22.6707 19.7789 21.4757C18.2826 17.4303 16.4212 12.3949 15.0582 7.46358L14.9697 7.14214L14.7256 7.3695C14.711 7.38294 14.4041 7.67078 14.0379 8.22629C13.7075 7.53414 12.9448 5.73096 12.5651 3.18524C13.0254 2.791 15.4536 0.843349 18.6646 0.627192M18.8113 0.415514C15.0537 0.600312 12.349 3.10572 12.349 3.10572C12.8417 6.53847 14.0189 8.63956 14.0189 8.63956C14.4545 7.89813 14.8633 7.51846 14.8633 7.51846C16.6329 13.9203 19.2279 20.4621 20.8093 24.8805C7.92053 38.0381 0 49.4899 0 49.4899L2.31613 48.9187L1.63182 50.4766C1.63182 50.4766 3.21436 50.7409 8.18373 54.1423C14.2205 44.5172 18.305 38.4748 23.504 32.3306C29.2115 47.951 33.8415 60.5229 33.8415 60.5229C40.7697 55.4191 44.6852 53.6462 44.6852 53.6462C41.2771 49.1438 38.8097 42.574 38.8097 42.574L37.5206 44.7927C34.1629 38.8243 31.2117 32.4639 28.7198 26.4675C39.8379 14.6124 47.297 10.7295 47.297 10.7295C43.0276 7.6831 42.4026 6.24616 42.4026 6.24616C36.7736 10.0888 31.2129 14.8062 26.0397 19.7196C20.8799 7.30006 18.8101 0.415514 18.8101 0.415514H18.8113Z" fill="#1F2535"/>
</svg>
